<svg width="20" height="25" viewBox="0 0 20 25" fill="none" xmlns="http://www.w3.org/2000/svg">
<path d="M9.99999 12.5C8.68145 12.5 7.39252 12.1334 6.29619 11.4467C5.19986 10.7599 4.34538 9.78381 3.84079 8.64177C3.33621 7.49974 3.20419 6.24307 3.46142 5.03069C3.71865 3.81831 4.35359 2.70466 5.28594 1.83059C6.21829 0.956507 7.40618 0.361252 8.69939 0.120095C9.99259 -0.121063 11.333 0.00270804 12.5512 0.475756C13.7694 0.948803 14.8106 1.74988 15.5431 2.77769C16.2757 3.8055 16.6667 5.01387 16.6667 6.25C16.6649 7.9071 15.9619 9.49585 14.7121 10.6676C13.4622 11.8393 11.7676 12.4983 9.99999 12.5ZM9.99999 2.08334C9.12096 2.08334 8.26167 2.32771 7.53079 2.78555C6.7999 3.24339 6.23025 3.89413 5.89386 4.65549C5.55747 5.41685 5.46945 6.25462 5.64094 7.06288C5.81243 7.87113 6.23573 8.61356 6.85729 9.19628C7.47886 9.779 8.27078 10.1758 9.13292 10.3366C9.99506 10.4974 10.8887 10.4149 11.7008 10.0995C12.5129 9.78414 13.207 9.25008 13.6954 8.56488C14.1838 7.87967 14.4444 7.07409 14.4444 6.25C14.4444 5.14493 13.9762 4.08513 13.1427 3.30372C12.3092 2.52232 11.1787 2.08334 9.99999 2.08334Z" fill="white"/>
<path d="M10 14.5834C12.6513 14.5861 15.1931 15.5747 17.0678 17.3323C18.9425 19.0898 19.9971 21.4728 20 23.9584C20 24.2346 19.8829 24.4996 19.6746 24.6949C19.4662 24.8903 19.1836 25 18.8889 25C18.5942 25 18.3116 24.8903 18.1032 24.6949C17.8948 24.4996 17.7778 24.2346 17.7778 23.9584C17.7778 22.0245 16.9583 20.1698 15.4997 18.8024C14.0411 17.4349 12.0628 16.6667 10 16.6667C7.9372 16.6667 5.9589 17.4349 4.50028 18.8024C3.04166 20.1698 2.22222 22.0245 2.22222 23.9584C2.22222 24.2346 2.10516 24.4996 1.89679 24.6949C1.68841 24.8903 1.4058 25 1.11111 25C0.816425 25 0.53381 24.8903 0.325436 24.6949C0.117062 24.4996 0 24.2346 0 23.9584C0.00293922 21.4728 1.05745 19.0898 2.93218 17.3323C4.80691 15.5747 7.34874 14.5861 10 14.5834Z" fill="white"/>
</svg>
