<svg width="92" height="25" viewBox="0 0 92 25" fill="none" xmlns="http://www.w3.org/2000/svg">
<path d="M0.0240307 0.635998H9.31203C15.864 0.635998 19.14 2.868 19.14 7.332V17.664C19.14 21.888 15.876 24 9.34803 24H0.0240307V0.635998ZM9.09603 21.624C13.56 21.624 15.792 20.28 15.792 17.592V7.296C15.792 6.432 15.612 5.7 15.252 5.1C14.892 4.5 14.388 4.056 13.74 3.768C13.092 3.504 12.42 3.324 11.724 3.228C11.028 3.108 10.212 3.048 9.27603 3.048H3.51603V21.624H9.09603ZM31.5856 24.36C26.2576 24.36 23.5936 22.584 23.5936 19.032V12.156C23.5936 10.044 24.1936 8.532 25.3936 7.62C26.6176 6.684 28.5856 6.216 31.2976 6.216C33.8656 6.216 35.7136 6.66 36.8416 7.548C37.9936 8.436 38.5696 9.972 38.5696 12.156V16.008H26.8696V18.636C26.8696 19.836 27.2896 20.7 28.1296 21.228C28.9696 21.756 30.2656 22.02 32.0176 22.02C33.6736 22.02 35.6296 21.732 37.8856 21.156V23.64C35.6776 24.12 33.5776 24.36 31.5856 24.36ZM35.3296 13.884V11.148C35.3296 10.092 35.0056 9.372 34.3576 8.988C33.7336 8.58 32.6536 8.376 31.1176 8.376C29.6296 8.376 28.5496 8.58 27.8776 8.988C27.2056 9.372 26.8696 10.092 26.8696 11.148V13.884H35.3296ZM43.2192 20.112H47.3952V24H43.2192V20.112ZM52.9342 0.635998H62.2222C68.7742 0.635998 72.0502 2.868 72.0502 7.332V17.664C72.0502 21.888 68.7862 24 62.2582 24H52.9342V0.635998ZM62.0062 21.624C66.4702 21.624 68.7022 20.28 68.7022 17.592V7.296C68.7022 6.432 68.5222 5.7 68.1622 5.1C67.8022 4.5 67.2982 4.056 66.6502 3.768C66.0022 3.504 65.3302 3.324 64.6342 3.228C63.9382 3.108 63.1222 3.048 62.1862 3.048H56.4262V21.624H62.0062ZM84.4958 24.36C79.1678 24.36 76.5038 22.584 76.5038 19.032V12.156C76.5038 10.044 77.1038 8.532 78.3038 7.62C79.5278 6.684 81.4958 6.216 84.2078 6.216C86.7758 6.216 88.6238 6.66 89.7518 7.548C90.9038 8.436 91.4798 9.972 91.4798 12.156V16.008H79.7798V18.636C79.7798 19.836 80.1998 20.7 81.0398 21.228C81.8798 21.756 83.1758 22.02 84.9278 22.02C86.5838 22.02 88.5398 21.732 90.7958 21.156V23.64C88.5878 24.12 86.4878 24.36 84.4958 24.36ZM88.2398 13.884V11.148C88.2398 10.092 87.9158 9.372 87.2678 8.988C86.6438 8.58 85.5638 8.376 84.0278 8.376C82.5398 8.376 81.4598 8.58 80.7878 8.988C80.1158 9.372 79.7798 10.092 79.7798 11.148V13.884H88.2398Z" fill="white"/>
</svg>
