<svg width="22" height="22" viewBox="0 0 22 22" fill="none" xmlns="http://www.w3.org/2000/svg">
<path d="M1 19V2.95652L3.93023 1H16.4884L19 2.95652V19H16.4884L9.7907 13.1304L5 19H1Z" fill="white"/>
<path d="M18.3972 20.9971C18.0609 20.9963 17.7281 20.9343 17.418 20.8149C17.108 20.6955 16.8268 20.521 16.5908 20.3014L11 15.2071L5.40915 20.3047C5.05009 20.6386 4.58961 20.8656 4.08773 20.9561C3.58585 21.0466 3.06586 20.9964 2.59555 20.8121C2.12057 20.637 1.71424 20.3347 1.42961 19.9447C1.14499 19.5546 0.99531 19.095 1.00011 18.6258V5.16606C1.00011 4.06115 1.479 3.0015 2.33143 2.22021C3.18386 1.43892 4.34 1 5.54551 1L16.4545 1C17.0514 1 17.6425 1.10776 18.1939 1.31712C18.7454 1.52649 19.2465 1.83336 19.6686 2.22021C20.0906 2.60707 20.4254 3.06633 20.6539 3.57178C20.8823 4.07723 20.9999 4.61897 20.9999 5.16606V18.6258C21.005 19.0946 20.8558 19.554 20.5719 19.944C20.2879 20.334 19.8824 20.6365 19.4081 20.8121C19.0879 20.9349 18.7442 20.9977 18.3972 20.9971ZM5.54551 2.66643C4.8222 2.66643 4.12852 2.92978 3.61706 3.39855C3.10561 3.86733 2.81827 4.50312 2.81827 5.16606V18.6258C2.81794 18.7646 2.86252 18.9004 2.94636 19.0161C3.03021 19.1317 3.14956 19.222 3.28935 19.2755C3.42914 19.329 3.58309 19.3433 3.73175 19.3166C3.88042 19.29 4.01713 19.2235 4.12462 19.1257V19.1257L10.3636 13.4424C10.534 13.2872 10.7644 13.2001 11.0045 13.2001C11.2447 13.2001 11.4751 13.2872 11.6454 13.4424L17.8772 19.124C17.9847 19.2219 18.1214 19.2883 18.2701 19.315C18.4187 19.3416 18.5727 19.3273 18.7125 19.2738C18.8522 19.2203 18.9716 19.13 19.0554 19.0144C19.1393 18.8988 19.1839 18.763 19.1835 18.6241V5.16606C19.1835 4.50312 18.8962 3.86733 18.3847 3.39855C17.8733 2.92978 17.1796 2.66643 16.4563 2.66643H5.54551Z" fill="white" stroke="#5B5E62"/>
</svg>
